<?xml version="1.0" encoding="UTF-8"?><svg id="Capa_1" xmlns="http://www.w3.org/2000/svg" viewBox="0 0 32 32"><defs><style>.cls-1{fill:#4a494a;stroke-width:0px;}</style></defs><path class="cls-1" d="M2.83,28.98h-.06c.02-.12.03-.23.06-.35.22-.8.45-1.59.66-2.39.36-1.31.71-2.63,1.06-3.95.03-.1.02-.23-.03-.32-.49-.93-.91-1.89-1.2-2.91-.3-1.05-.48-2.12-.49-3.21,0-.87.1-1.75.21-2.62.15-1.21.56-2.35,1.08-3.44.53-1.11,1.21-2.11,2.01-3.04.77-.89,1.64-1.65,2.6-2.3,1.12-.76,2.35-1.33,3.66-1.69.94-.26,1.9-.45,2.88-.49,1.05-.04,2.1.02,3.15.2,1.1.19,2.15.5,3.16.97,1.58.73,2.97,1.72,4.16,3,.57.63,1.09,1.28,1.55,2,1.24,1.94,1.88,4.06,2.01,6.34.05.93,0,1.87-.15,2.8-.2,1.22-.55,2.39-1.07,3.5-.5,1.08-1.13,2.09-1.92,2.97-.52.58-1.1,1.11-1.68,1.63-.8.73-1.73,1.3-2.71,1.75-.88.4-1.8.72-2.74.95-.88.21-1.79.27-2.69.36-.43.04-.87,0-1.29-.05-.68-.08-1.37-.15-2.04-.3-1.1-.25-2.15-.65-3.15-1.19-.07-.04-.19-.04-.28-.02-1.54.39-3.07.78-4.6,1.19-.73.19-1.45.4-2.17.61ZM5.94,25.8c1.32-.34,2.6-.67,3.88-.99.14-.03.32-.05.43.02.91.57,1.89,1,2.92,1.29.73.2,1.46.36,2.22.36.59,0,1.18-.03,1.77-.05.76-.02,1.49-.2,2.2-.42,1.67-.53,3.15-1.41,4.41-2.64.75-.72,1.36-1.55,1.89-2.46.93-1.61,1.36-3.35,1.43-5.19.01-.36-.03-.71-.05-1.07-.03-.38-.05-.77-.12-1.14-.24-1.2-.65-2.35-1.26-3.43-.7-1.25-1.64-2.29-2.73-3.19-.85-.7-1.81-1.24-2.84-1.63-.95-.37-1.94-.61-2.95-.69-.59-.05-1.19-.05-1.78,0-.69.06-1.39.14-2.06.3-1.28.31-2.45.88-3.53,1.64-1.07.76-1.98,1.67-2.72,2.75-.69,1.01-1.22,2.1-1.55,3.28-.22.8-.39,1.6-.38,2.43,0,.58,0,1.16.06,1.74.05.5.13,1,.25,1.49.31,1.23.81,2.38,1.53,3.44.04.06.05.17.03.25-.16.6-.33,1.19-.49,1.79-.19.7-.38,1.41-.57,2.14Z"/><path class="cls-1" d="M11.72,9.39c.13,0,.26,0,.39,0,.27-.01.47.12.57.35.4.92.78,1.84,1.17,2.76.1.24.04.44-.1.63-.27.37-.54.75-.83,1.11-.14.17-.17.35-.05.53.33.5.66,1,1.02,1.47.56.71,1.26,1.3,2.04,1.76.47.28.96.51,1.45.73.4.18.65.04.98-.43.24-.34.52-.66.78-.99.17-.22.39-.25.63-.14.86.4,1.73.79,2.59,1.2.49.23.55.4.42.93-.05.19-.06.39-.1.59-.15.66-.62,1.06-1.15,1.41-.77.5-1.63.67-2.5.53-.76-.12-1.49-.42-2.22-.68-.97-.34-1.85-.87-2.66-1.5-.85-.66-1.65-1.37-2.3-2.23-.54-.71-1.09-1.4-1.58-2.14-.47-.7-.77-1.48-.87-2.33-.16-1.36.32-2.45,1.32-3.34.28-.26.65-.25,1.01-.23Z"/></svg>