<?xml version="1.0" encoding="UTF-8"?><svg id="Capa_1" xmlns="http://www.w3.org/2000/svg" viewBox="0 0 32 32"><defs><style>.cls-1{fill:#4a494a;stroke-width:0px;}</style></defs><g id="lQLzAO.tif"><path class="cls-1" d="M2.71,22.44c0-4.3,0-8.59,0-12.89.03.04,0,.08.04.13,0-.07,0-.14.01-.2.05-.38.21-.72.41-1.03.31-.46.73-.78,1.24-.99.36-.14.73-.18,1.11-.18,3.44,0,6.88,0,10.31,0,3.56,0,7.12,0,10.68,0,.15,0,.29,0,.43.02.35.04.67.15.97.32.37.21.67.48.91.83.31.46.46.97.46,1.52,0,4.04,0,8.07,0,12.11,0,.09,0,.18-.02.26-.05.39-.19.74-.39,1.07-.13.21-.29.39-.47.56-.18.16-.39.3-.6.41-.31.16-.64.26-.99.26-1.79,0-3.59,0-5.38,0-3.17,0-6.33,0-9.5,0-2.14,0-4.28,0-6.41,0-.28,0-.55,0-.82-.07-.43-.11-.81-.33-1.13-.63-.24-.22-.43-.48-.58-.78-.13-.27-.24-.54-.23-.84,0-.02,0-.04-.02-.05-.02.05,0,.11-.03.16ZM15.99,9.02c-3.1,0-6.2,0-9.3,0-.19,0-.37,0-.56,0-.01,0-.03,0-.04.01,0,.02.01.02.02.03.06.05.11.11.17.16,1.64,1.64,3.28,3.28,4.92,4.92,1.32,1.32,2.65,2.65,3.97,3.97.18.18.35.36.53.53.06.06.13.1.22.12.16.03.29-.04.4-.15.11-.11.21-.21.31-.32,1.7-1.7,3.4-3.39,5.09-5.09,1.26-1.26,2.52-2.51,3.77-3.77.12-.12.25-.24.37-.37.01-.01.03-.02.02-.03,0-.02-.03-.01-.05-.01-.12,0-.24,0-.36,0-3.17,0-6.33,0-9.5,0ZM25.43,22.91s.01-.02.02-.03c-.05-.04-.1-.07-.14-.12-1.76-1.76-3.53-3.53-5.29-5.29-.03-.03-.05-.03-.08,0-.79.8-1.59,1.59-2.39,2.38-.21.21-.45.38-.72.49-.17.07-.34.13-.53.15-.19.02-.37.03-.56,0-.37-.05-.71-.18-1.01-.4-.32-.24-.58-.54-.86-.81-.61-.61-1.21-1.21-1.82-1.82-.03-.03-.04-.03-.07,0-.05.06-.1.11-.15.16-1.29,1.29-2.58,2.58-3.87,3.87-.46.46-.91.92-1.37,1.36-.01,0-.03.02-.02.04,0,.02.03.01.04.01.15,0,.3,0,.45,0,5.4,0,10.8,0,16.21,0,.72,0,1.44,0,2.17,0ZM4.49,9.91s-.01,0-.02.01c0,.07,0,.15,0,.22,0,3.14,0,6.28,0,9.42,0,.81,0,1.62,0,2.43,0,.12.02.23.06.34.03.08.03.09.09.02.02-.02.04-.04.06-.06,1.17-1.17,2.34-2.33,3.51-3.5.85-.85,1.71-1.7,2.56-2.56.03-.03.02-.05,0-.07-.07-.06-.13-.13-.2-.2-1.99-1.99-3.98-3.98-5.97-5.96-.03-.03-.06-.07-.09-.1ZM27.53,9.92s-.01,0-.02-.01c-.06.06-.12.13-.18.19-1.99,1.99-3.99,3.98-5.98,5.97-.03.03-.07.07-.1.1-.02.02-.02.04,0,.06.06.06.12.12.18.18,1.99,1.99,3.98,3.98,5.97,5.97.03.03.04.02.05,0,.02-.06.04-.11.06-.17.03-.12.01-.24.01-.36,0-.57,0-1.15,0-1.72,0-3.32,0-6.63,0-9.95,0-.08,0-.17,0-.25Z"/><path class="cls-1" d="M5.37,24.69c.05-.02.11-.01.17-.01,1.09,0,2.18,0,3.26,0,2.13,0,4.26,0,6.38,0,3.76,0,7.51,0,11.27,0,.1,0,.2-.01.3.01-7.13,0-14.25,0-21.38,0Z"/></g></svg>