<?xml version="1.0" encoding="UTF-8"?><svg id="Capa_1" xmlns="http://www.w3.org/2000/svg" viewBox="0 0 32 32"><defs><style>.cls-1{fill:#4a494a;stroke-width:0px;}</style></defs><g id="TfHoGF.tif"><path class="cls-1" d="M20.09,29.3h-8c-.16-.06-.33-.04-.49-.04-1.06-.03-2.11-.07-3.14-.32-2.2-.53-3.84-1.78-4.81-3.84-.6-1.28-.76-2.65-.8-4.04-.09-2.86-.06-5.73-.04-8.59.01-1.37.02-2.75.35-4.1.58-2.35,1.95-4.03,4.21-4.95,1.21-.49,2.49-.61,3.79-.65,2.7-.09,5.4-.06,8.1-.04,1.42.01,2.84,0,4.24.3,2.58.56,4.38,2.04,5.29,4.55.44,1.2.54,2.46.54,3.73,0,3.06,0,6.13,0,9.19,0,.87-.05,1.75-.21,2.61-.31,1.75-1.08,3.26-2.47,4.41-1.36,1.12-2.96,1.56-4.68,1.69-.63.05-1.26.02-1.89.1ZM16.08,26.91c.7,0,1.4,0,2.1,0,1.51-.02,3.03.03,4.53-.21,2.04-.33,3.39-1.46,3.94-3.48.23-.83.25-1.69.28-2.55.08-2.67.06-5.35.03-8.02-.01-1.07-.02-2.15-.18-3.21-.32-2.14-1.62-3.56-3.73-4.03-.92-.21-1.85-.22-2.79-.24-2.47-.05-4.95-.04-7.42-.02-1.18.01-2.37,0-3.54.22-1.99.38-3.29,1.53-3.79,3.52-.23.9-.25,1.83-.27,2.76-.06,2.15-.06,4.31-.04,6.46.01,1.49-.02,2.98.19,4.46.21,1.49.87,2.71,2.2,3.5.84.5,1.79.69,2.75.75,1.91.12,3.82.1,5.74.1Z"/><path class="cls-1" d="M16.08,22.84c-3.78-.01-6.84-3.08-6.83-6.84.01-3.78,3.09-6.84,6.85-6.81,3.78.02,6.81,3.06,6.81,6.83,0,3.77-3.07,6.84-6.83,6.83ZM11.66,16c0,2.45,1.96,4.43,4.41,4.43,2.45,0,4.43-1.95,4.44-4.4.01-2.46-1.96-4.44-4.42-4.44-2.45,0-4.42,1.97-4.43,4.42Z"/><path class="cls-1" d="M24.77,8.91c0,.89-.72,1.59-1.61,1.59-.87,0-1.58-.72-1.57-1.6,0-.88.71-1.58,1.58-1.58.89,0,1.6.7,1.6,1.59Z"/></g></svg>